<?xml version="1.0" standalone="no"?>
<!DOCTYPE svg PUBLIC "-//W3C//DTD SVG 20010904//EN"
 "http://www.w3.org/TR/2001/REC-SVG-20010904/DTD/svg10.dtd">
<svg version="1.0" xmlns="http://www.w3.org/2000/svg"
 width="1024.000000pt" height="1024.000000pt" viewBox="0 0 1024.000000 1024.000000"
 preserveAspectRatio="xMidYMid meet">
<metadata>
Created by potrace 1.14, written by Peter Selinger 2001-2017
</metadata>
<g transform="translate(0.000000,1024.000000) scale(0.100000,-0.100000)"
fill="#000000" stroke="none">
<path d="M4985 8485 c-151 -33 -260 -98 -480 -283 -11 -9 -83 -69 -160 -132
-77 -63 -142 -117 -145 -120 -4 -5 -389 -321 -789 -648 -69 -57 -144 -118
-166 -136 -56 -46 -202 -167 -315 -260 -52 -43 -104 -85 -115 -94 -11 -10
-119 -98 -240 -197 -121 -99 -222 -182 -225 -185 -3 -3 -41 -35 -85 -70 -43
-36 -91 -75 -105 -86 -14 -12 -158 -131 -320 -263 -162 -133 -313 -257 -335
-276 -22 -18 -80 -66 -130 -106 -49 -41 -117 -96 -150 -124 -33 -27 -81 -66
-105 -87 -25 -20 -77 -62 -116 -95 -39 -32 -90 -74 -114 -93 -23 -19 -53 -51
-66 -72 -27 -42 -37 -120 -20 -159 13 -30 386 -497 438 -548 52 -51 146 -65
200 -28 13 8 174 140 359 293 185 154 356 295 379 314 24 19 85 69 134 111 50
41 143 117 206 169 63 51 117 96 120 100 3 3 55 46 115 95 84 69 725 598 840
693 11 9 97 80 190 157 94 77 238 196 321 265 83 69 170 141 194 160 54 43
177 145 210 173 14 12 61 51 105 87 44 36 85 70 91 75 6 6 30 26 54 45 24 19
48 40 54 45 6 6 31 26 56 45 25 19 61 50 80 68 57 54 116 77 190 76 72 -1 103
-13 171 -69 24 -20 62 -52 84 -70 80 -66 481 -397 506 -418 14 -12 111 -92
214 -177 104 -85 362 -298 574 -473 212 -175 404 -333 426 -352 22 -18 96 -79
165 -136 69 -57 175 -144 235 -194 61 -49 121 -100 135 -111 14 -12 162 -136
330 -274 168 -139 415 -343 549 -453 320 -266 304 -254 362 -262 81 -11 119
14 234 158 210 260 260 323 277 341 55 61 72 98 71 155 -2 84 -26 115 -190
248 -80 65 -176 143 -213 173 -36 30 -84 69 -105 85 -21 17 -43 35 -49 40 -6
6 -56 46 -111 90 -55 44 -109 87 -120 97 -11 9 -99 80 -195 158 -96 78 -184
149 -195 158 -11 9 -48 39 -82 66 l-63 49 -2 1076 c-3 1211 3 1113 -80 1169
l-42 27 -481 0 -481 0 -37 -25 c-20 -13 -46 -43 -59 -65 l-23 -40 0 -572 c0
-379 -3 -569 -10 -564 -22 17 -300 244 -450 369 -333 276 -926 758 -957 780
-60 41 -118 69 -191 93 -79 26 -265 33 -352 14z"/>
<path d="M5053 6768 c-24 -8 -569 -449 -898 -726 -11 -9 -72 -60 -135 -112
-63 -52 -124 -102 -135 -111 -71 -60 -227 -189 -325 -269 -63 -51 -117 -96
-120 -99 -3 -3 -39 -33 -80 -66 -41 -33 -77 -62 -80 -65 -3 -3 -135 -113 -295
-245 -159 -132 -392 -324 -517 -427 l-227 -189 2 -1272 2 -1272 22 -40 c33
-62 94 -109 155 -121 18 -3 429 -6 914 -6 951 0 913 -1 981 52 34 27 72 83 84
123 5 17 9 374 9 793 1 843 -1 815 65 886 70 74 64 73 670 73 605 0 576 3 650
-74 65 -66 63 -46 64 -894 1 -731 2 -771 20 -810 24 -55 75 -105 130 -130 43
-19 70 -20 932 -19 666 0 897 4 927 13 53 16 107 61 135 112 l22 42 3 1272 2
1272 -282 233 c-155 128 -349 289 -432 358 -83 68 -216 178 -296 245 -80 66
-166 136 -190 157 -25 20 -145 119 -267 220 -121 100 -290 239 -373 308 -84
69 -166 137 -184 152 -17 14 -194 161 -393 326 -252 208 -374 302 -401 310
-47 14 -115 14 -159 0z"/>
</g>
</svg>
